<svg width="41" height="50" viewBox="0 0 41 50" fill="none" xmlns="http://www.w3.org/2000/svg">
<path fill-rule="evenodd" clip-rule="evenodd" d="M5.46037 31.6686L26.8861 10.3576L28.3783 11.2997C29.6821 12.1279 30.8917 13.0935 31.9755 14.181C33.0437 15.2451 33.9861 16.3982 34.7872 17.6186L38.6985 13.5795C39.8295 12.4155 40.4106 10.8373 40.332 9.22483C40.2378 7.61076 39.4682 6.10751 38.2273 5.07626L38.1958 5.05291C38.1173 4.99197 38.0702 4.95281 38.0231 4.91375C29.3366 -1.89565 16.9743 -1.58 9.10465 5.56378C1.65908 12.3247 0.370995 23.4842 5.46037 31.6686Z" fill="#FC8E77"/>
<path fill-rule="evenodd" clip-rule="evenodd" d="M34.7872 17.6185L13.7699 39.2872L12.262 38.3732C10.9426 37.5685 9.71721 36.6247 8.60195 35.5575C7.37673 34.3716 6.32429 33.0638 5.46035 31.6685L1.84752 35.2592C-0.602919 37.6998 -0.618504 41.6528 1.81623 44.1122L1.83188 44.1279C1.84758 44.142 1.84752 44.1389 1.84752 44.1357C9.48159 51.8326 23.6502 51.8935 31.9283 44.1966C39.421 37.2232 40.2221 25.8966 34.7872 17.6185Z" fill="#78D0DB"/>
<path fill-rule="evenodd" clip-rule="evenodd" d="M5.46094 31.6686C6.32488 33.0639 7.37731 34.3717 8.60253 35.5576C9.7178 36.6248 10.9431 37.5687 12.2626 38.3733L13.7705 39.2873L34.7877 17.6186C33.9866 16.3983 33.0442 15.2451 31.9761 14.1811C30.8923 13.0936 29.6827 12.1279 28.3789 11.2997L26.8867 10.3577L5.46094 31.6686Z" fill="#243757"/>
</svg>
