<svg width="37" height="36" viewBox="0 0 37 36" fill="none" xmlns="http://www.w3.org/2000/svg">
<path d="M4.93457 31.9063V14.5161" stroke="white" stroke-width="2" stroke-miterlimit="2.2561"/>
<path d="M32.4287 31.9063V14.5161" stroke="white" stroke-width="2" stroke-miterlimit="2.2561"/>
<path d="M13.2826 31.9063V17.2977C13.2826 15.7625 12.0377 14.5161 10.5014 14.5161C10.5002 14.5161 10.5002 14.5161 10.5002 14.5161C8.96274 14.5161 7.71777 15.7625 7.71777 17.2977C7.71777 22.2106 7.71777 31.9063 7.71777 31.9063" stroke="white" stroke-width="2" stroke-miterlimit="2.2561"/>
<path d="M21.2982 31.9063C21.2982 31.9063 21.2982 22.2106 21.2982 17.2977C21.2982 15.7625 20.0533 14.5161 18.517 14.5161C18.5158 14.5161 18.5158 14.5161 18.5158 14.5161C16.9784 14.5161 15.7334 15.7625 15.7334 17.2977C15.7334 22.2106 15.7334 31.9063 15.7334 31.9063" stroke="white" stroke-width="2" stroke-miterlimit="2.2561"/>
<path d="M29.6459 31.9063V17.2977C29.6459 15.7625 28.4009 14.5161 26.8647 14.5161C26.8635 14.5161 26.8635 14.5161 26.8635 14.5161C25.326 14.5161 24.0811 15.7625 24.0811 17.2977C24.0811 22.2106 24.0811 31.9063 24.0811 31.9063" stroke="white" stroke-width="2" stroke-miterlimit="2.2561"/>
<path d="M2.5127 9.65022L18.5127 1.99805L34.5127 9.65022" stroke="white" stroke-width="2" stroke-miterlimit="2.2561"/>
<path d="M4.60254 11.7354H32.4286" stroke="white" stroke-width="2" stroke-miterlimit="2.2561" stroke-linecap="square"/>
<path d="M2.5127 33.9958H34.5127" stroke="white" stroke-width="2" stroke-miterlimit="2.2561" stroke-linecap="square"/>
</svg>
