<svg width="37" height="36" viewBox="0 0 37 36" fill="none" xmlns="http://www.w3.org/2000/svg">
<g clip-path="url(#clip0_4741_12057)">
<path d="M18.518 8.89404L16.7291 6.76128C15.2581 5.00275 13.1438 3.91036 10.8671 3.73077C8.59029 3.55117 6.34312 4.29202 4.61336 5.8036C1.06515 8.89413 0.666003 14.3043 3.71895 17.8962L7.36339 22.1765" stroke="white" stroke-width="2.00068" stroke-miterlimit="2.2561" stroke-linecap="round"/>
<path d="M18.5166 8.89428L20.335 6.73175C21.8061 4.97322 23.9129 3.88814 26.1823 3.70854C28.4443 3.53643 30.6916 4.27727 32.414 5.78138C35.9622 8.8719 36.3614 14.2821 33.3084 17.8665L29.642 22.1768" stroke="white" stroke-width="2.00068" stroke-miterlimit="2.2561" stroke-linecap="round"/>
<path fill-rule="evenodd" clip-rule="evenodd" d="M7.3623 22.1766L11.014 17.6792C11.014 17.6792 11.9971 20.5601 14.1704 21.1812C16.9055 21.9595 19.552 18.7343 18.1993 15.988C17.3713 14.2968 14.8652 13.2418 14.8652 13.2418L18.5169 8.89404L22.1169 13.2418C22.1169 13.2418 22.5827 12.194 23.5141 11.0491C24.6008 9.72458 27.2322 8.59475 29.0655 10.2335C30.6622 11.6553 30.5439 14.3044 29.0655 15.7112C27.964 16.7589 26.079 17.9262 26.079 17.9262L29.6422 22.1766C29.6422 22.1766 21.8066 31.3883 19.2785 34.3591C19.0863 34.5836 18.7978 34.7182 18.5021 34.7182C18.199 34.7182 17.9183 34.5836 17.7261 34.3591C15.198 31.3883 7.3623 22.1766 7.3623 22.1766Z" stroke="white" stroke-width="2.00068" stroke-miterlimit="2.2561"/>
</g>
<defs>
<clipPath id="clip0_4741_12057">
<rect width="36.0001" height="36" fill="white" transform="translate(0.508789)"/>
</clipPath>
</defs>
</svg>
