<svg width="37" height="36" viewBox="0 0 37 36" fill="none" xmlns="http://www.w3.org/2000/svg">
<g clip-path="url(#clip0_4741_12127)">
<path d="M26.9353 7.19932C29.6059 6.93174 32.803 6.13949 35.2922 4.30824C36.1017 22.2986 29.7135 29.665 21.5736 30.2591" stroke="white" stroke-width="2" stroke-miterlimit="2.2561" stroke-linecap="round" stroke-linejoin="round"/>
<path d="M11.1706 9.95604C11.2853 7.81938 11.5578 5.43448 12.0312 2.78732C15.0525 5.70467 19.6399 6.87222 22.5217 7.20245" stroke="white" stroke-width="2" stroke-miterlimit="2.2561" stroke-linecap="round" stroke-linejoin="round"/>
<path fill-rule="evenodd" clip-rule="evenodd" d="M16.9052 33.2282C8.22629 30.9252 1.54354 26.1335 1.6415 7.31776C5.74905 10.0424 11.505 10.1931 14.3949 9.88238C17.2848 9.57163 22.8682 8.20154 26.3114 4.66503C30.4074 23.0298 24.8961 29.1328 16.9052 33.2282Z" stroke="white" stroke-width="2" stroke-miterlimit="2.2561" stroke-linecap="round" stroke-linejoin="round"/>
<path d="M22.3908 22.1585C21.647 24.2677 19.2052 25.9997 16.1543 26.3277C13.1034 26.6558 10.3492 25.4825 9.17404 23.5797" stroke="white" stroke-width="2" stroke-miterlimit="2.2561" stroke-linejoin="round"/>
<path d="M7.28418 18.1744C7.18097 17.2146 8.37961 16.3019 9.96113 16.1319C11.5426 15.9618 12.9079 16.5988 13.0111 17.5586" stroke="white" stroke-width="2" stroke-miterlimit="2.2561" stroke-linejoin="round"/>
<path d="M17.1941 17.109C17.0909 16.1492 18.2895 15.2365 19.871 15.0664C21.4526 14.8964 22.8178 15.5333 22.921 16.4932" stroke="white" stroke-width="2" stroke-miterlimit="2.2561" stroke-linejoin="round"/>
</g>
<defs>
<clipPath id="clip0_4741_12127">
<rect width="36" height="35.9999" fill="white" transform="translate(0.508789)"/>
</clipPath>
</defs>
</svg>
