<svg width="37" height="36" viewBox="0 0 37 36" fill="none" xmlns="http://www.w3.org/2000/svg">
<g clip-path="url(#clip0_4741_12073)">
<path d="M18.4976 27.5028C19.4747 27.5028 20.2667 26.7191 20.2667 25.7523C20.2667 24.7855 19.4747 24.0017 18.4976 24.0017C17.5206 24.0017 16.7285 24.7855 16.7285 25.7523C16.7285 26.7191 17.5206 27.5028 18.4976 27.5028Z" stroke="white" stroke-width="2" stroke-miterlimit="2.2561"/>
<path fill-rule="evenodd" clip-rule="evenodd" d="M18.5076 11.2998C19.2374 11.2998 20.2789 12.1545 20.2789 13.2205C20.2789 14.9875 18.5076 21.9307 18.5076 21.9307C18.5076 21.9307 16.7363 14.9875 16.7363 13.2205C16.7363 12.1545 17.7712 11.2998 18.5076 11.2998Z" stroke="white" stroke-width="2" stroke-miterlimit="2.2561"/>
<path fill-rule="evenodd" clip-rule="evenodd" d="M15.7718 4.45733C16.3447 3.50249 17.3893 2.9126 18.5127 2.9126C19.636 2.9126 20.6695 3.50249 21.2536 4.45733C24.8259 10.4204 31.0492 20.802 34.7113 26.8961C35.2955 27.8791 35.3182 29.1053 34.7453 30.107C34.1837 31.1086 33.1162 31.7264 31.9704 31.7264C24.7473 31.7264 12.2781 31.7264 5.05497 31.7264C3.89792 31.7264 2.84199 31.1086 2.26908 30.107C1.70741 29.1053 1.71869 27.8791 2.31406 26.8961C5.96495 20.802 12.1995 10.4204 15.7718 4.45733Z" stroke="white" stroke-width="2" stroke-miterlimit="2.2561" stroke-linecap="round"/>
</g>
<defs>
<clipPath id="clip0_4741_12073">
<rect width="36.0001" height="36" fill="white" transform="translate(0.508789)"/>
</clipPath>
</defs>
</svg>
