<svg width="37" height="36" viewBox="0 0 37 36" fill="none" xmlns="http://www.w3.org/2000/svg">
<g clip-path="url(#clip0_4741_12114)">
<path d="M29.1103 10.9358C30.7 10.8115 32.1086 11.2308 33.3151 12.2665C33.3151 12.2717 33.3151 12.2717 33.3151 12.2717C35.7955 14.4051 36.0752 18.1491 33.9366 20.6295L24.3672 31.7472C24.1652 31.9802 23.8751 32.1148 23.5644 32.1148C23.2589 32.1148 22.9637 31.9802 22.7669 31.7472C21.6484 30.4526 20.1313 28.9509 18.5312 27.0919" stroke="white" stroke-width="2" stroke-miterlimit="2.2561" stroke-linecap="round"/>
<path fill-rule="evenodd" clip-rule="evenodd" d="M16.4076 29.5343C16.1718 29.8024 15.833 29.9573 15.4702 29.9573C15.1134 29.9573 14.7687 29.8024 14.5389 29.5343L3.376 16.7677C0.884606 13.9141 1.21112 9.60092 4.10768 7.14053C5.52269 5.9431 7.36718 5.34736 9.22969 5.49033C11.0861 5.63331 12.8154 6.50908 14.0248 7.90905L15.4823 9.60696L16.9698 7.8852C18.1793 6.48522 19.8967 5.62138 21.7532 5.47841C23.6096 5.33543 25.4479 5.93117 26.8569 7.12264C26.8569 7.1286 26.8569 7.12861 26.8569 7.12861C29.7534 9.58304 30.0801 13.8903 27.5826 16.7439L16.4076 29.5343Z" stroke="white" stroke-width="2" stroke-miterlimit="2.2561" stroke-linejoin="round"/>
</g>
<defs>
<clipPath id="clip0_4741_12114">
<rect width="36" height="35.9999" fill="white" transform="translate(0.508789)"/>
</clipPath>
</defs>
</svg>
